# xmcd CD database file
#
# Track frame offsets:
#	150
#	20700
#	37575
#	56850
#	80911
#	110777
#	135002
#	152028
#	166578
#	182178
#	200928
#
# Disc length: 2929 seconds
#
# Revision: 0
# Processed by: cddbd v1.5.1PL2 Copyright (c) Steve Scherf et al.
# Submitted via: CDex 1.51
#
DISCID=920b6f0b
DTITLE=Rob Agerbeek - The Very Thought Of You
DYEAR=2005
DGENRE=Jazz
TTITLE0=Besame Mucho
TTITLE1=This Masquerade
TTITLE2=Birks Works
TTITLE3=Trouble In Mind
TTITLE4=Once I Loved
TTITLE5=Waltzing At Suite One
TTITLE6=Sometime I Feel Like A Motherless Child
TTITLE7=Alone Together
TTITLE8=Nuages
TTITLE9=Tin Tin Deo
TTITLE10=The Very Thought Of You
EXTD=YEAR: 2005
EXTT0=
EXTT1=
EXTT2=
EXTT3=
EXTT4=
EXTT5=
EXTT6=
EXTT7=
EXTT8=
EXTT9=
EXTT10=
PLAYORDER=
